<svg width="473" height="50" viewBox="0 0 473 50" fill="none" xmlns="http://www.w3.org/2000/svg">
<path d="M11.9995 49.7002C8.24486 49.7002 5.36486 48.7615 3.35953 46.8842C1.3542 45.0068 0.351531 42.1908 0.351531 38.4362V32.2282H9.63153V38.4362C9.63153 40.5268 10.4209 41.5722 11.9995 41.5722C12.6395 41.5722 13.1302 41.3802 13.4715 40.9962C13.8129 40.5695 13.9835 40.0362 13.9835 39.3962V32.9322C13.9835 32.0362 13.8129 31.3322 13.4715 30.8202C13.1729 30.3082 12.6822 29.8602 11.9995 29.4762C11.3169 29.0495 10.1009 28.3882 8.35153 27.4922C5.4502 25.9988 3.42353 24.4842 2.27153 22.9482C1.1622 21.3695 0.586198 19.1722 0.543531 16.3562V10.5322C0.543531 7.33216 1.56753 4.8575 3.61553 3.10816C5.7062 1.35883 8.4582 0.484161 11.8715 0.484161C15.4982 0.484161 18.2929 1.46549 20.2555 3.42816C22.2609 5.39083 23.2422 8.16416 23.1995 11.7482V17.3162H14.2395V11.7482C14.2395 9.6575 13.4715 8.61216 11.9355 8.61216C10.6555 8.61216 10.0155 9.25216 10.0155 10.5322V16.2922C10.0155 17.3162 10.2929 18.1268 10.8475 18.7242C11.4449 19.2788 12.4262 19.9188 13.7915 20.6442C16.2662 21.7535 18.1862 22.8628 19.5515 23.9722C20.9595 25.0815 21.9622 26.3402 22.5595 27.7482C23.1995 29.1562 23.5195 30.8842 23.5195 32.9322V39.5242C23.5195 42.6815 22.4529 45.1775 20.3195 47.0122C18.2289 48.8042 15.4555 49.7002 11.9995 49.7002ZM44.876 48.8682H25.996V1.25216H44.556V9.57216H35.468V20.5802H43.468V28.5162H35.468V40.4202H44.876V48.8682ZM56.968 48.8682H47.496V1.25216H56.968V20.3242H58.056L61.576 1.25216H71.56L65.608 24.2282V24.4202L72.072 48.8682H62.088L58.056 28.4522H56.968V48.8682ZM99.4025 48.8682H89.8025L89.0345 41.6362H83.0185L82.1865 48.8682H72.5865L79.4345 1.25216H92.5545L99.4025 48.8682ZM85.6425 17.8282L83.8505 33.8282H88.1385L86.4105 17.8282L86.0905 12.7722H85.8985L85.6425 17.8282ZM115.569 48.8682H103.409L97.649 1.25216H107.185L109.617 33.0602L109.873 38.3722H110.001L110.257 33.0602L112.753 1.25216H123.313L125.873 33.0602L126.129 38.3722H126.257L126.513 33.0602L128.945 1.25216H138.481L132.721 48.8682H120.561L118.321 18.6602L118.193 14.8202H118.001L117.809 18.6602L115.569 48.8682ZM163.528 48.8682H153.928L153.16 41.6362H147.144L146.312 48.8682H136.712L143.56 1.25216H156.68L163.528 48.8682ZM149.768 17.8282L147.976 33.8282H152.264L150.536 17.8282L150.216 12.7722H150.024L149.768 17.8282ZM174.651 48.8682H165.371V1.25216H174.715L179.643 20.7082L180.667 26.3402H180.795L180.411 19.4922V1.25216H189.627V48.8682H180.283L175.355 29.6042L174.395 23.9722H174.267L174.651 30.8202V48.8682ZM215.687 49.7002C211.932 49.7002 209.052 48.7615 207.047 46.8842C205.042 45.0068 204.039 42.1908 204.039 38.4362V32.2282H213.319V38.4362C213.319 40.5268 214.108 41.5722 215.687 41.5722C216.327 41.5722 216.818 41.3802 217.159 40.9962C217.5 40.5695 217.671 40.0362 217.671 39.3962V32.9322C217.671 32.0362 217.5 31.3322 217.159 30.8202C216.86 30.3082 216.37 29.8602 215.687 29.4762C215.004 29.0495 213.788 28.3882 212.039 27.4922C209.138 25.9988 207.111 24.4842 205.959 22.9482C204.85 21.3695 204.274 19.1722 204.231 16.3562V10.5322C204.231 7.33216 205.255 4.8575 207.303 3.10816C209.394 1.35883 212.146 0.484161 215.559 0.484161C219.186 0.484161 221.98 1.46549 223.943 3.42816C225.948 5.39083 226.93 8.16416 226.887 11.7482V17.3162H217.927V11.7482C217.927 9.6575 217.159 8.61216 215.623 8.61216C214.343 8.61216 213.703 9.25216 213.703 10.5322V16.2922C213.703 17.3162 213.98 18.1268 214.535 18.7242C215.132 19.2788 216.114 19.9188 217.479 20.6442C219.954 21.7535 221.874 22.8628 223.239 23.9722C224.647 25.0815 225.65 26.3402 226.247 27.7482C226.887 29.1562 227.207 30.8842 227.207 32.9322V39.5242C227.207 42.6815 226.14 45.1775 224.007 47.0122C221.916 48.8042 219.143 49.7002 215.687 49.7002ZM240.948 49.7002C237.15 49.7002 234.249 48.5908 232.244 46.3722C230.281 44.1108 229.3 40.8042 229.3 36.4522V13.6682C229.3 9.35883 230.281 6.09483 232.244 3.87616C234.249 1.61483 237.15 0.484161 240.948 0.484161C244.745 0.484161 247.646 1.61483 249.652 3.87616C251.657 6.09483 252.66 9.35883 252.66 13.6682V36.4522C252.66 40.8042 251.657 44.1108 249.652 46.3722C247.689 48.5908 244.788 49.7002 240.948 49.7002ZM240.948 41.3162C242.441 41.3162 243.188 40.1855 243.188 37.9242V12.1962C243.188 9.9775 242.441 8.86816 240.948 8.86816C239.497 8.86816 238.772 9.9775 238.772 12.1962V37.9242C238.772 40.1855 239.497 41.3162 240.948 41.3162ZM266.885 49.7002C263.088 49.7002 260.186 48.5908 258.181 46.3722C256.218 44.1535 255.237 40.8682 255.237 36.5162V13.7322C255.237 9.3375 256.218 6.03083 258.181 3.81216C260.144 1.59349 263.045 0.484161 266.885 0.484161C274.65 0.484161 278.533 4.83616 278.533 13.5402V20.2602H269.061V12.1962C269.061 11.0868 268.89 10.2548 268.549 9.70016C268.25 9.1455 267.696 8.86816 266.885 8.86816C265.434 8.86816 264.709 9.9775 264.709 12.1962V37.9242C264.709 40.1855 265.434 41.3162 266.885 41.3162C267.61 41.3162 268.144 41.0602 268.485 40.5482C268.869 39.9935 269.061 39.1402 269.061 37.9882V29.0282H278.533V36.6442C278.533 40.9962 277.594 44.2602 275.717 46.4362C273.84 48.6122 270.896 49.7002 266.885 49.7002ZM290.718 48.8682H281.246V1.25216H290.718V48.8682ZM319.465 48.8682H309.865L309.097 41.6362H303.081L302.249 48.8682H292.649L299.497 1.25216H312.617L319.465 48.8682ZM305.705 17.8282L303.913 33.8282H308.201L306.473 17.8282L306.153 12.7722H305.961L305.705 17.8282ZM339.037 48.8682H321.309V1.25216H330.781V40.1642H339.037V48.8682ZM363.937 49.7002C360.182 49.7002 357.302 48.7615 355.297 46.8842C353.292 45.0068 352.289 42.1908 352.289 38.4362V32.2282H361.569V38.4362C361.569 40.5268 362.358 41.5722 363.937 41.5722C364.577 41.5722 365.068 41.3802 365.409 40.9962C365.75 40.5695 365.921 40.0362 365.921 39.3962V32.9322C365.921 32.0362 365.75 31.3322 365.409 30.8202C365.11 30.3082 364.62 29.8602 363.937 29.4762C363.254 29.0495 362.038 28.3882 360.289 27.4922C357.388 25.9988 355.361 24.4842 354.209 22.9482C353.1 21.3695 352.524 19.1722 352.481 16.3562V10.5322C352.481 7.33216 353.505 4.8575 355.553 3.10816C357.644 1.35883 360.396 0.484161 363.809 0.484161C367.436 0.484161 370.23 1.46549 372.193 3.42816C374.198 5.39083 375.18 8.16416 375.137 11.7482V17.3162H366.177V11.7482C366.177 9.6575 365.409 8.61216 363.873 8.61216C362.593 8.61216 361.953 9.25216 361.953 10.5322V16.2922C361.953 17.3162 362.23 18.1268 362.785 18.7242C363.382 19.2788 364.364 19.9188 365.729 20.6442C368.204 21.7535 370.124 22.8628 371.489 23.9722C372.897 25.0815 373.9 26.3402 374.497 27.7482C375.137 29.1562 375.457 30.8842 375.457 32.9322V39.5242C375.457 42.6815 374.39 45.1775 372.257 47.0122C370.166 48.8042 367.393 49.7002 363.937 49.7002ZM377.934 48.8682V1.25216H389.518C393.23 1.25216 396.067 2.27616 398.03 4.32416C399.992 6.32949 400.974 9.31616 400.974 13.2842V23.7162C400.974 27.8122 400.035 30.8842 398.158 32.9322C396.323 34.9802 393.72 36.0042 390.35 36.0042H387.406V48.8682H377.934ZM388.75 27.6202C389.646 27.6202 390.328 27.3428 390.798 26.7882C391.267 26.2335 391.502 25.2095 391.502 23.7162V13.4762C391.502 12.0682 391.267 11.0868 390.798 10.5322C390.371 9.93483 389.71 9.63616 388.814 9.63616H387.406V27.6202H388.75ZM426.403 48.8682H416.803L416.035 41.6362H410.019L409.187 48.8682H399.587L406.435 1.25216H419.555L426.403 48.8682ZM412.643 17.8282L410.851 33.8282H415.139L413.411 17.8282L413.091 12.7722H412.899L412.643 17.8282ZM438.948 49.7002C435.15 49.7002 432.249 48.5908 430.244 46.3722C428.281 44.1535 427.3 40.8682 427.3 36.5162V13.7322C427.3 9.3375 428.281 6.03083 430.244 3.81216C432.206 1.59349 435.108 0.484161 438.948 0.484161C446.713 0.484161 450.596 4.83616 450.596 13.5402V20.2602H441.124V12.1962C441.124 11.0868 440.953 10.2548 440.612 9.70016C440.313 9.1455 439.758 8.86816 438.948 8.86816C437.497 8.86816 436.772 9.9775 436.772 12.1962V37.9242C436.772 40.1855 437.497 41.3162 438.948 41.3162C439.673 41.3162 440.206 41.0602 440.548 40.5482C440.932 39.9935 441.124 39.1402 441.124 37.9882V29.0282H450.596V36.6442C450.596 40.9962 449.657 44.2602 447.78 46.4362C445.902 48.6122 442.958 49.7002 438.948 49.7002ZM472.189 48.8682H453.309V1.25216H471.869V9.57216H462.781V20.5802H470.781V28.5162H462.781V40.4202H472.189V48.8682Z" fill="white"/>
</svg>
