<svg width="131" height="48" viewBox="0 0 131 48" fill="none" xmlns="http://www.w3.org/2000/svg">
<path fill-rule="evenodd" clip-rule="evenodd" d="M58.9518 2.56779C58.062 4.00824 57.3198 5.21719 57.3021 5.25369C57.1756 5.52001 55.0818 5.63087 54.9254 5.37941C54.8173 5.20502 55.0655 4.37258 55.4773 3.53001C56.2059 2.03953 56.2093 1.97903 55.601 1.31119C54.5844 0.194517 54.0904 0.497005 53.0061 2.89833C52.4417 4.14918 51.8137 5.27464 51.611 5.39936C51.4081 5.52373 50.2316 5.72009 48.9964 5.83534C39.3062 6.73875 38.5327 6.96926 40.0675 8.49488C40.7536 9.17726 40.8906 9.19044 42.9198 8.76797C45.2009 8.29311 50.6611 7.84968 50.6611 8.13933C50.6611 8.23532 50.2891 9.15022 49.8342 10.1723C47.9267 14.4602 45.7384 23.4642 45.918 26.2877C45.9482 26.7649 45.9567 27.2972 45.937 27.4702C45.9173 27.6433 44.5437 26.4644 42.8848 24.8509C39.8261 21.8757 38.431 21.1977 37.9472 22.4516C37.6779 23.1489 37.6779 37.9218 37.9472 38.6191C38.1029 39.0223 38.6428 39.1537 40.1453 39.1537C42.6379 39.1537 42.7539 38.9631 42.7872 34.8023C42.8011 33.0597 42.8633 31.5831 42.9256 31.5212C42.9881 31.4594 44.818 33.1628 46.9927 35.3062C50.4064 38.6711 51.0783 39.1889 51.9089 39.0943L52.8711 38.9847L52.967 31.2113C53.0197 26.9359 52.9786 23.0958 52.8755 22.6774C52.7072 21.9943 52.4811 21.9169 50.6546 21.9169C49.536 21.9169 48.6214 21.8787 48.622 21.8324C48.6282 21.2254 50.5247 15.0161 51.3319 12.9606C53.1744 8.26776 53.411 7.90444 54.7031 7.78175C55.5534 7.70064 55.804 7.78885 55.6646 8.11973C55.5612 8.36544 54.8731 9.93567 54.1356 11.6087C51.9738 16.5127 51.2381 18.7585 51.4795 19.7147C51.7045 20.6066 52.8106 21.9169 53.3383 21.9169C53.5015 21.9169 54.3049 21.2961 55.1233 20.537C56.651 19.1198 60.0198 16.5093 60.3207 16.5093C60.4135 16.5093 60.4009 17.2508 60.2928 18.1569C60.1275 19.5437 60.2112 19.9188 60.8188 20.5228C61.7548 21.4532 62.514 21.4282 64.6666 20.396C66.8855 19.3321 66.9814 19.3382 66.9814 20.5451C66.9814 21.0919 67.1344 21.633 67.3214 21.7479C67.5336 21.8784 67.6614 25.1875 67.6614 30.5553V39.1537H69.8715H72.0815V36.3222C72.0815 34.2287 72.2131 33.3821 72.5871 33.0739C73.3909 32.4108 73.9441 32.862 75.1365 35.1528C77.2051 39.126 77.2381 39.1537 79.9248 39.1537C82.9005 39.1537 82.9216 38.9682 80.4117 34.8496C79.3832 33.1618 78.5417 31.4891 78.5417 31.1325C78.5417 30.776 78.9191 30.1318 79.3805 29.7009C80.5236 28.6332 81.3215 26.0771 81.1954 23.8863L81.0917 22.0859H78.883H76.6743L76.42 24.1138C76.1402 26.3471 75.3578 27.67 74.0417 28.1364C72.3267 28.7437 72.0815 28.3267 72.0815 24.8002C72.0815 22.6047 72.2056 21.579 72.4712 21.579C73.2165 21.579 79.5617 17.459 79.5617 16.975C79.5617 15.9101 78.3672 16.1876 74.451 18.163C70.7052 20.053 69.0589 20.6492 69.4866 19.9614C69.5774 19.8151 70.3567 19.3456 71.2182 18.9181C73.8625 17.6054 74.4772 15.735 72.5514 14.8627C71.8574 14.5484 71.4855 14.5632 70.7728 14.9323C70.2771 15.1892 69.1065 15.7965 68.1714 16.2819C66.178 17.3167 63.3151 18.5372 62.8816 18.5372C62.7109 18.5372 62.7235 18.1576 62.9098 17.6703C63.0921 17.1934 63.2413 16.2842 63.2413 15.6502C63.2413 14.2415 62.0299 13.2725 60.6879 13.6071C59.8586 13.814 57.2637 15.394 55.3362 16.8659C54.8221 17.2583 54.4011 17.4986 54.4011 17.3992C54.4011 17.1535 56.8353 11.6458 57.8192 9.66529L58.6169 8.05991L60.5039 8.07478C61.542 8.08289 63.0033 8.30866 63.7513 8.57667C65.4837 9.19686 66.3014 9.20159 66.3014 8.59154C66.3014 7.77668 64.6575 6.76782 62.6256 6.33622C61.5617 6.11012 60.5658 5.81675 60.4125 5.68427C60.2588 5.55212 60.6032 4.68487 61.1775 3.75713C62.292 1.95639 62.4695 1.00634 61.8133 0.354041C61.0415 -0.413165 60.5655 -0.0447698 58.9518 2.56779ZM4.31299 21.9227C1.57831 22.7386 -0.228485 25.3244 0.128522 27.9123C0.51273 30.6989 2.37699 32.1482 6.12013 32.5703C9.00339 32.8954 9.23391 33.0076 9.11491 34.0287C9.01937 34.8506 8.86467 34.9382 7.33702 35.0345C6.06403 35.1146 5.43706 34.973 4.7159 34.443C4.02671 33.9364 3.25319 33.7461 1.88364 33.7461C0.0880621 33.7461 0 33.7867 0 34.6134C0 36.1738 1.0428 37.501 3.23007 38.7238C4.6156 39.4988 9.27812 39.5147 10.7102 38.7495C13.1416 37.4503 13.9403 36.2174 13.9403 33.7633C13.9403 31.3417 12.5429 29.831 9.68544 29.1628C8.56614 28.9012 7.22957 28.6846 6.71514 28.6819C5.39387 28.6744 4.29089 27.5203 4.76418 26.6408C5.27929 25.6844 7.87966 25.7016 8.7851 26.6679C9.3162 27.2347 9.77351 27.3435 11.2634 27.2593C13.0379 27.1586 13.0933 27.1252 13.1943 26.0913C13.2769 25.2436 13.0345 24.7522 12.0043 23.6781C10.19 21.7875 7.11703 21.0859 4.31299 21.9227ZM102.43 22.4438C98.5378 24.3717 98.2039 29.5528 101.839 31.605C102.607 32.0387 104.077 32.4307 105.445 32.5676C107.908 32.8133 108.653 33.2932 108.297 34.4058C107.992 35.363 105.266 35.3735 104.042 34.4221C102.963 33.5832 99.7091 33.4653 99.4048 34.2538C99.0828 35.0875 99.5697 36.3732 100.561 37.307C102.312 38.9564 103.344 39.318 106.297 39.3156C108.895 39.3136 109.168 39.242 110.799 38.1361C112.705 36.843 113.222 35.8504 113.222 33.4869C113.222 32.1924 113.04 31.7957 111.947 30.7094C110.828 29.5968 110.361 29.3933 108.122 29.0422C104.558 28.4835 103.973 28.1996 104.105 27.0907C104.29 25.534 107.184 25.3677 108.275 26.8511C108.552 27.2282 109.148 27.3371 110.513 27.2603C112.33 27.1579 112.375 27.1306 112.477 26.0771C112.563 25.198 112.331 24.7488 111.224 23.6487C108.962 21.3998 105.496 20.925 102.43 22.4438ZM121.275 21.9024C118.518 22.7835 117.093 25.0354 117.384 28.0509C117.643 30.7304 119.534 32.1323 123.47 32.5618C125.832 32.8201 126.818 33.4369 126.278 34.3176C125.696 35.2653 122.734 35.3464 121.907 34.4373C121.412 33.8941 120.86 33.7461 119.326 33.7461C117.065 33.7461 116.703 34.1639 117.44 35.9173C118.841 39.2518 124.922 40.5685 128.512 38.3152C130.414 37.1222 131 36.0856 131 33.9151C131 30.7685 129.678 29.613 125.194 28.839C122.272 28.3344 121.455 27.7771 122.041 26.6882C122.574 25.6992 125.086 25.6742 125.973 26.6486C126.79 27.5466 130.125 27.6335 130.46 26.7652C130.788 25.9152 129.256 23.3571 127.932 22.5432C126.619 21.7365 122.912 21.3796 121.275 21.9024ZM18.6739 22.1704C18.6589 22.3097 18.6344 25.2572 18.6188 28.7197C18.5848 36.2941 18.8231 37.0431 21.7472 38.5619C25.7838 40.6577 30.9063 39.0449 31.9294 35.3562C32.1858 34.4322 32.2935 31.7929 32.23 28.0005L32.1307 22.0859H30.0906H28.0506L27.9659 27.8315C27.8646 34.7134 27.7347 35.098 25.5111 35.098C24.6451 35.098 23.7529 34.9155 23.5285 34.6924C23.2442 34.4099 23.1205 32.6071 23.1205 28.7556C23.1205 25.5891 22.9699 22.9451 22.7686 22.5706C22.4864 22.0467 22.0474 21.9169 20.5585 21.9169C19.5365 21.9169 18.6885 22.0312 18.6739 22.1704ZM86.3336 22.4979C86.318 22.8291 86.2625 23.4801 86.2105 23.9448C86.0772 25.1382 86.3346 25.6411 87.2581 25.9902C88.0438 26.287 88.0619 26.3887 88.0619 30.5086V34.7232L87.1268 35.1687C86.2918 35.5665 86.1918 35.7943 86.1918 37.2993V38.9847L90.5177 39.0794C94.8396 39.1737 94.8443 39.173 95.0497 38.3598C95.5298 36.4574 95.0534 35.4668 93.417 34.9642C92.894 34.8033 92.8226 34.2994 92.8271 30.7993C92.8301 28.6095 92.9447 26.6479 93.0821 26.4408C93.2194 26.2332 93.6839 25.9547 94.1136 25.8212C94.8164 25.6032 94.8851 25.4018 94.7937 23.8323L94.692 22.0859L90.5269 21.991C86.7324 21.9044 86.3594 21.9497 86.3336 22.4979ZM47.601 29.3724C47.601 29.5691 47.754 29.6363 47.941 29.5214C48.128 29.4065 48.281 29.2456 48.281 29.1635C48.281 29.0814 48.128 29.0144 47.941 29.0144C47.754 29.0144 47.601 29.1757 47.601 29.3724ZM12.7503 42.2658C11.633 42.9029 11.2423 43.6383 11.2311 45.1281C11.2175 46.9086 12.3535 47.9411 14.3262 47.9411C16.2085 47.9411 17.8487 46.2158 16.4676 45.6888C16.1741 45.577 15.5805 45.6736 15.148 45.9038C13.9719 46.5297 12.8564 46.0576 12.9856 44.9889C13.1464 43.6583 14.0528 43.2683 15.2928 43.9963C16.3727 44.6303 17.0004 44.5184 17.0004 43.6914C17.0004 43.0898 15.045 41.8565 14.1103 41.869C13.7363 41.8741 13.1243 42.0526 12.7503 42.2658ZM21.0804 42.2949C19.2101 43.2355 18.9007 46.3155 20.5677 47.4014C22.7485 48.8219 25.5005 47.5707 25.5005 45.1586C25.5005 43.4727 25.2302 42.9245 24.116 42.352C22.9433 41.7491 22.194 41.7349 21.0804 42.2949ZM28.379 42.6285C28.2719 43.0523 28.2308 44.3832 28.2876 45.5858C28.3804 47.5592 28.4651 47.7826 29.1556 47.8803C29.7741 47.9675 29.9206 47.8262 29.9206 47.1421C29.9206 46.4706 30.1134 46.2742 30.8556 46.1891C32.0824 46.0488 32.164 44.8483 30.9658 44.5674C29.7299 44.2771 29.6656 43.5474 30.876 43.5474C31.9634 43.5474 32.4873 42.8542 31.8661 42.2368C31.6564 42.0282 30.8298 41.8575 30.0291 41.8575C28.7972 41.8575 28.5436 41.9762 28.379 42.6285ZM35.0904 42.1455C34.7759 42.3439 34.6787 43.1865 34.7504 45.0977C34.848 47.6985 34.8742 47.7721 35.7008 47.7721C36.3162 47.7721 36.58 47.568 36.6565 47.0323C36.7228 46.5716 37.0431 46.2533 37.5065 46.1874C38.5374 46.0417 38.5204 44.7685 37.4858 44.6222C36.4392 44.4745 36.495 43.5474 37.5507 43.5474C38.5708 43.5474 38.9577 43.0073 38.4086 42.3496C37.9672 41.8214 35.8147 41.6889 35.0904 42.1455ZM41.5207 42.3169C41.2589 42.6305 41.1463 43.709 41.2102 45.2907L41.3109 47.7721H43.1809C44.8242 47.7721 45.0509 47.6903 45.0509 47.0962C45.0509 46.6092 44.7881 46.3902 44.1101 46.3128C43.0741 46.1945 43.167 45.5753 44.221 45.5753C44.6542 45.5753 44.8809 45.3431 44.8809 44.8993C44.8809 44.4035 44.6542 44.2234 44.0309 44.2234C42.878 44.2234 42.9477 43.6191 44.1159 43.4852C44.7885 43.4085 45.0509 43.1885 45.0509 42.7025C45.0509 42.1394 44.7905 42.0096 43.491 41.9258C42.4387 41.8579 41.7978 41.985 41.5207 42.3169ZM48.0845 42.3118C47.9879 42.5616 47.9546 43.8922 48.01 45.2691L48.111 47.7721L50.0919 47.8742C51.9895 47.9722 52.0684 47.9435 51.9619 47.1982C51.8759 46.595 51.6015 46.3962 50.7396 46.3138C49.4826 46.1934 49.5761 45.5753 50.8511 45.5753C51.4543 45.5753 51.6811 45.3908 51.6811 44.8993C51.6811 44.4556 51.4543 44.2234 51.0211 44.2234C50.658 44.2234 50.2667 44.0713 50.1511 43.8854C50.0324 43.6945 50.3109 43.5474 50.791 43.5474C51.829 43.5474 52.2217 43.0117 51.6688 42.3496C51.1357 41.7112 48.3276 41.6815 48.0845 42.3118ZM59.7988 42.2973C59.0592 42.8569 58.5832 46.742 59.1684 47.4429C59.6019 47.9617 61.7572 48.1165 62.4501 47.6785C62.6694 47.5399 63.0689 46.7913 63.3379 46.015C63.8513 44.534 63.6323 43.9121 62.5783 43.8587C62.2281 43.8411 62.1938 43.7749 62.4763 43.6617C63.1155 43.4051 62.9873 42.6031 62.2437 42.2074C61.3791 41.7477 60.4815 41.7805 59.7988 42.2973ZM70.9639 42.0674C70.8306 42.1999 70.7215 43.5755 70.7215 45.1248V47.9411H72.5915C74.3596 47.9411 74.4616 47.8952 74.4616 47.0962C74.4616 46.3739 74.3011 46.2472 73.3565 46.2235L72.2515 46.1962L73.3814 45.7057C74.5748 45.1876 74.6761 44.4718 73.5833 44.2751C72.3746 44.0574 72.244 43.5474 73.3973 43.5474C74.3555 43.5474 74.4939 43.4427 74.4004 42.787C74.3082 42.1441 74.0529 42.011 72.749 41.9265C71.9003 41.8714 71.0972 41.9349 70.9639 42.0674ZM85.2432 42.0681C84.7237 42.5845 85.0089 43.5474 85.6818 43.5474C86.2928 43.5474 86.3618 43.7729 86.3618 45.7679C86.3618 47.8769 86.4002 47.9827 87.1268 47.8803C87.8123 47.7833 87.9024 47.5562 87.9922 45.6953C88.0772 43.9334 88.1979 43.591 88.7867 43.4379C89.2322 43.322 89.4389 43.0368 89.3631 42.642C89.2689 42.1502 88.867 42.0066 87.3652 41.9272C86.3309 41.8728 85.3761 41.936 85.2432 42.0681ZM92.1419 44.8993V47.9411H94.0358C95.8048 47.9411 95.9221 47.8911 95.8208 47.1807C95.743 46.6362 95.4465 46.3898 94.777 46.3134C93.6087 46.1796 93.539 45.5753 94.692 45.5753C95.3152 45.5753 95.542 45.3951 95.542 44.8993C95.542 44.4035 95.3152 44.2234 94.692 44.2234C94.2245 44.2234 93.842 44.0713 93.842 43.8854C93.842 43.6995 94.2153 43.5474 94.6719 43.5474C95.6321 43.5474 95.9714 43.1581 95.6767 42.3949C95.526 42.0049 95.0126 41.8575 93.8056 41.8575H92.1419V44.8993ZM98.8289 42.083C98.7041 42.2067 98.6021 43.5755 98.6021 45.1248C98.6021 47.9036 98.6133 47.9411 99.4521 47.9411C100.075 47.9411 100.302 47.761 100.302 47.2652C100.302 46.8934 100.514 46.5892 100.772 46.5892C101.031 46.5892 101.323 46.8934 101.421 47.2652C101.541 47.7218 101.885 47.9411 102.48 47.9411C103.376 47.9411 103.588 47.4659 103.06 46.6382C102.892 46.3756 102.917 45.7892 103.117 45.2616C103.653 43.8496 103.197 42.6602 101.954 42.2293C100.754 41.8136 99.174 41.7396 98.8289 42.083ZM105.905 42.2067C105.786 42.3986 106.033 43.1212 106.454 43.8121C106.875 44.5029 107.308 45.6767 107.416 46.4202C107.571 47.492 107.771 47.7944 108.377 47.8803C108.924 47.9573 109.149 47.8124 109.167 47.3733C109.225 45.9724 109.551 44.9984 110.377 43.7577C111.075 42.7093 111.158 42.3882 110.791 42.157C110.052 41.6916 109.532 41.8106 109.142 42.5335C108.942 42.9053 108.591 43.2095 108.362 43.2095C108.133 43.2095 107.755 42.9053 107.521 42.5335C107.063 41.8052 106.256 41.6419 105.905 42.2067ZM79.2217 42.3223C79.2217 42.3919 78.6875 43.614 78.0347 45.0379C77.0021 47.2905 76.9198 47.6542 77.3999 47.8374C77.7035 47.9529 78.2353 47.8718 78.5821 47.6565C79.3563 47.1759 80.8068 47.1452 81.0917 47.6031C81.3933 48.0885 82.6214 48.0205 82.6231 47.5187C82.6238 47.2865 82.1267 45.9937 81.5181 44.6462C80.7558 42.9577 80.2267 42.1962 79.8167 42.1959C79.4896 42.1955 79.2217 42.2526 79.2217 42.3223ZM21.7469 44.1666C21.1029 44.6847 21.0492 44.8858 21.3871 45.5134C21.8234 46.3239 22.756 46.4784 23.3925 45.8457C24.5893 44.656 23.0678 43.1033 21.7469 44.1666ZM61.0782 44.0544C61.186 44.3332 61.4107 44.5614 61.5777 44.5614C61.7446 44.5614 61.8813 44.3332 61.8813 44.0544C61.8813 43.7756 61.6566 43.5474 61.3818 43.5474C61.0779 43.5474 60.9592 43.7455 61.0782 44.0544ZM100.454 43.9148C100.328 44.1169 100.402 44.4579 100.618 44.6726C100.914 44.9673 101.084 44.9436 101.314 44.5745C101.638 44.0534 101.474 43.5474 100.982 43.5474C100.817 43.5474 100.58 43.7127 100.454 43.9148ZM60.9422 45.2924C60.4312 45.8 60.3887 46.5892 60.8718 46.5892C61.2826 46.5892 61.6589 45.7571 61.4842 45.2356C61.4029 44.994 61.2234 45.0126 60.9422 45.2924Z" fill="white"/>
</svg>
